:FULLY-SPECIFIED
:FORCE-ALL-JOINTS-BE-3DOF
:DEGREES
2650
root -1.48519 15.3667 -28.6352 1248.12 -70.7748 -172.413
lfemur -45.295 25.8719 -9.04338
ltibia 65.7049 0 0
lfoot 17.5353 13.5805 0
ltoes -3.94879 0 0
rfemur -35.1665 -18.1044 23.8634
rtibia 69.3516 0 0
rfoot -22.8266 -6.01101 0
rtoes -5.6077 0 0
lowerback 18.8992 4.86879 -0.35836
upperback -0.195566 6.34078 0.321276
thorax -10.8877 2.98648 -1.20711
lowerneck -2.12079 9.54954 0.116482
upperneck 5.16575 12.6806 1.01116
head 1.90838 6.33788 0.579218
lclavicle 7.92654e-15 -2.5842e-15 0
lhumerus 64.5033 -35.0068 37.5176
lradius 111.459 0 0
lwrist -29.9678 0 0
lhand -39.7368 394.26 0
lfingers 7.12502 0 0
lthumb -12.7141 -656.147 0
rclavicle 7.92654e-15 -2.5842e-15 0
rhumerus 1.76754 74.6355 -75.1073
rradius 103.65 0 0
rwrist -34.0874 0 0
rhand 1.47488 -391.991 0
rfingers 7.12502 0 0
rthumb 27.0023 299.919 0
2651
root -1.61232 15.3906 -28.607 1249.02 -69.6122 -173.636
lfemur -44.6468 26.3155 -8.44261
ltibia 63.2073 0 0
lfoot 17.7145 13.5624 0
ltoes -1.45441 0 0
rfemur -34.4706 -17.971 23.3398
rtibia 69.5718 0 0
rfoot -22.9712 -6.23622 0
rtoes -5.87113 0 0
lowerback 18.8266 5.12403 -0.153294
upperback -0.251411 6.70753 0.145999
thorax -10.8608 3.14407 -1.60937
lowerneck -2.0623 9.54913 0.433048
upperneck 5.42582 12.6648 1.00295
head 2.00497 6.334 0.535951
lclavicle -3.11471e-14 1.51076e-14 0
lhumerus 60.4976 -35.0133 39.3805
lradius 112.609 0 0
lwrist -30.6866 0 0
lhand -39.5637 393.024 0
lfingers 7.12502 0 0
lthumb -12.5471 -657.373 0
rclavicle -3.11471e-14 1.51076e-14 0
rhumerus -1.88965 74.1175 -77.8417
rradius 105.003 0 0
rwrist -36.0556 0 0
rhand 0.838746 -391.06 0
rfingers 7.12502 0 0
rthumb 26.3935 300.757 0
2652
root -1.74699 15.4007 -28.5767 1249.82 -68.4407 -174.71
lfemur -43.9927 26.7631 -7.83644
ltibia 60.6513 0 0
lfoot 17.6795 13.5092 0
ltoes 0.726867 0 0
rfemur -33.7747 -17.8377 22.8163
rtibia 69.7952 0 0
rfoot -23.1643 -6.53695 0
rtoes -6.13976 0 0
lowerback 18.6485 5.27942 -0.109976
upperback -0.296713 6.92052 0.086902
thorax -10.7953 3.24382 -1.74166
lowerneck -1.9493 9.66813 0.769626
upperneck 5.77136 12.8108 0.922342
head 2.12694 6.40913 0.47193
lclavicle 5.55852e-14 -7.7526e-15 0
lhumerus 55.7798 -34.7863 42.0806
lradius 113.47 0 0
lwrist -31.3844 0 0
lhand -39.6432 392.305 0
lfingers 7.12502 0 0
lthumb -12.6238 -658.097 0
rclavicle 5.55852e-14 -7.7526e-15 0
rhumerus -5.17304 73.3265 -80.2802
rradius 106.44 0 0
rwrist -39.4547 0 0
rhand 1.35366 -390.532 0
rfingers 7.12502 0 0
rthumb 26.8863 301.36 0
2653
root -1.88081 15.4123 -28.5458 1250.22 -67.3189 -175.363
lfemur -43.3387 27.2108 -7.23027
ltibia 58.0758 0 0
lfoot 17.5785 13.3555 0
ltoes 2.53242 0 0
rfemur -33.0927 -17.7071 22.3033
rtibia 70.0196 0 0
rfoot -23.4006 -6.90483 0
rtoes -6.41013 0 0
lowerback 18.4973 5.38331 0.153723
upperback -0.350577 7.11216 0.017496
thorax -10.7251 3.32156 -2.00236
lowerneck -2.08064 9.75007 1.1103
upperneck 6.21737 12.8958 0.995905
head 2.31642 6.45849 0.470434
lclavicle -2.86623e-14 -4.96962e-15 0
lhumerus 50.8548 -34.3024 44.6795
lradius 114.442 0 0
lwrist -32.0293 0 0
lhand -40.8532 394.758 0
lfingers 7.12502 0 0
lthumb -13.7901 -655.72 0
rclavicle -2.86623e-14 -4.96962e-15 0
rhumerus -8.30481 72.5523 -82.4129
rradius 107.812 0 0
rwrist -43.0572 0 0
rhand 1.52679 -389.698 0
rfingers 7.12502 0 0
rthumb 27.0519 302.22 0
